<svg xmlns="http://www.w3.org/2000/svg" width="1440" height="820" viewBox="0 0 1440 820" fill="none">
<rect width="1440" height="820" fill="#fffdf7" rx="24"/>
<style>text { font-family: 'Avenir Next', 'Segoe UI', sans-serif; fill: #111827; }.title { font-size: 26px; font-weight: 700; }.subtitle { font-size: 14px; fill: #475569; }.label { font-size: 13px; }.small { font-size: 12px; }.legend { font-size: 13px; }.muted { fill: #64748b; }.grid { stroke: #e2e8f0; stroke-width: 1; }.axis { stroke: #94a3b8; stroke-width: 1.5; }</style>
<text x="60" y="66" text-anchor="start" class="title">Normalized Per-Class Precision</text>
<text x="60" y="96" text-anchor="start" class="subtitle">Precision from the normalized classification report for each active label.</text>
<line x1="130" y1="570.0" x2="1350" y2="570.0" class="grid"/>
<text x="116" y="574.0" text-anchor="end" class="small muted">0%</text>
<line x1="130" y1="529.0" x2="1350" y2="529.0" class="grid"/>
<text x="116" y="533.0" text-anchor="end" class="small muted">10%</text>
<line x1="130" y1="488.0" x2="1350" y2="488.0" class="grid"/>
<text x="116" y="492.0" text-anchor="end" class="small muted">20%</text>
<line x1="130" y1="447.0" x2="1350" y2="447.0" class="grid"/>
<text x="116" y="451.0" text-anchor="end" class="small muted">30%</text>
<line x1="130" y1="406.0" x2="1350" y2="406.0" class="grid"/>
<text x="116" y="410.0" text-anchor="end" class="small muted">40%</text>
<line x1="130" y1="365.0" x2="1350" y2="365.0" class="grid"/>
<text x="116" y="369.0" text-anchor="end" class="small muted">50%</text>
<line x1="130" y1="324.0" x2="1350" y2="324.0" class="grid"/>
<text x="116" y="328.0" text-anchor="end" class="small muted">60%</text>
<line x1="130" y1="283.0" x2="1350" y2="283.0" class="grid"/>
<text x="116" y="287.0" text-anchor="end" class="small muted">70%</text>
<line x1="130" y1="242.0" x2="1350" y2="242.0" class="grid"/>
<text x="116" y="246.0" text-anchor="end" class="small muted">80%</text>
<line x1="130" y1="201.0" x2="1350" y2="201.0" class="grid"/>
<text x="116" y="205.0" text-anchor="end" class="small muted">90%</text>
<line x1="130" y1="160.0" x2="1350" y2="160.0" class="grid"/>
<text x="116" y="164.0" text-anchor="end" class="small muted">100%</text>
<line x1="130" y1="570" x2="1350" y2="570" class="axis"/>
<rect x="165.0" y="366.20540964327716" width="46.111111111111114" height="203.79459035672284" rx="10" fill="#0f766e"/>
<text x="188.05555555555554" y="356.20540964327716" text-anchor="middle" class="small">49.7%</text>
<rect x="223.11111111111111" y="329.8458574181118" width="46.111111111111114" height="240.15414258188824" rx="10" fill="#14b8a6"/>
<text x="246.16666666666669" y="319.8458574181118" text-anchor="middle" class="small">58.6%</text>
<rect x="281.22222222222223" y="226.1290322580645" width="46.111111111111114" height="343.8709677419355" rx="10" fill="#2dd4bf"/>
<text x="304.27777777777777" y="216.1290322580645" text-anchor="middle" class="small">83.9%</text>
<rect x="339.33333333333337" y="402.6672311600339" width="46.111111111111114" height="167.33276883996612" rx="10" fill="#b45309"/>
<text x="362.3888888888889" y="392.6672311600339" text-anchor="middle" class="small">40.8%</text>
<rect x="397.44444444444446" y="405.1585820895523" width="46.111111111111114" height="164.84141791044775" rx="10" fill="#f59e0b"/>
<text x="420.5" y="395.1585820895523" text-anchor="middle" class="small">40.2%</text>
<rect x="455.55555555555554" y="404.8757497857755" width="46.111111111111114" height="165.1242502142245" rx="10" fill="#fb923c"/>
<text x="478.6111111111111" y="394.8757497857755" text-anchor="middle" class="small">40.3%</text>
<text x="333.33333333333337" y="606" text-anchor="middle" class="label"><tspan x="333.33333333333337" dy="0">Tool</tspan><tspan x="333.33333333333337" dy="16">Call</tspan></text>
<rect x="571.6666666666667" y="403.5338345864662" width="46.111111111111114" height="166.46616541353382" rx="10" fill="#0f766e"/>
<text x="594.7222222222223" y="393.5338345864662" text-anchor="middle" class="small">40.6%</text>
<rect x="629.7777777777778" y="351.2876254180602" width="46.111111111111114" height="218.7123745819398" rx="10" fill="#14b8a6"/>
<text x="652.8333333333334" y="341.2876254180602" text-anchor="middle" class="small">53.3%</text>
<rect x="687.8888888888889" y="268.5509838998211" width="46.111111111111114" height="301.4490161001789" rx="10" fill="#2dd4bf"/>
<text x="710.9444444444445" y="258.5509838998211" text-anchor="middle" class="small">73.5%</text>
<rect x="746.0000000000001" y="442.3037323037323" width="46.111111111111114" height="127.6962676962677" rx="10" fill="#b45309"/>
<text x="769.0555555555557" y="432.3037323037323" text-anchor="middle" class="small">31.1%</text>
<rect x="804.1111111111112" y="438.97405660377353" width="46.111111111111114" height="131.02594339622644" rx="10" fill="#f59e0b"/>
<text x="827.1666666666667" y="428.97405660377353" text-anchor="middle" class="small">32.0%</text>
<rect x="862.2222222222223" y="412.37986270022884" width="46.111111111111114" height="157.62013729977116" rx="10" fill="#fb923c"/>
<text x="885.2777777777778" y="402.37986270022884" text-anchor="middle" class="small">38.4%</text>
<text x="740.0000000000001" y="606" text-anchor="middle" class="label"><tspan x="740.0000000000001" dy="0">Request</tspan><tspan x="740.0000000000001" dy="16">Info</tspan></text>
<rect x="978.3333333333334" y="209.4102564102564" width="46.111111111111114" height="360.5897435897436" rx="10" fill="#0f766e"/>
<text x="1001.3888888888889" y="199.4102564102564" text-anchor="middle" class="small">87.9%</text>
<rect x="1036.4444444444446" y="204.77011494252872" width="46.111111111111114" height="365.2298850574713" rx="10" fill="#14b8a6"/>
<text x="1059.5000000000002" y="194.77011494252872" text-anchor="middle" class="small">89.1%</text>
<rect x="1094.5555555555557" y="363.7555645487657" width="46.111111111111114" height="206.24443545123432" rx="10" fill="#2dd4bf"/>
<text x="1117.6111111111113" y="353.7555645487657" text-anchor="middle" class="small">50.3%</text>
<rect x="1152.6666666666667" y="399.7361111111111" width="46.111111111111114" height="170.26388888888889" rx="10" fill="#b45309"/>
<text x="1175.7222222222224" y="389.7361111111111" text-anchor="middle" class="small">41.5%</text>
<rect x="1210.7777777777778" y="403.1917808219178" width="46.111111111111114" height="166.8082191780822" rx="10" fill="#f59e0b"/>
<text x="1233.8333333333335" y="393.1917808219178" text-anchor="middle" class="small">40.7%</text>
<rect x="1268.888888888889" y="403.2349841938883" width="46.111111111111114" height="166.76501580611168" rx="10" fill="#fb923c"/>
<text x="1291.9444444444446" y="393.2349841938883" text-anchor="middle" class="small">40.7%</text>
<text x="1146.6666666666667" y="606" text-anchor="middle" class="label"><tspan x="1146.6666666666667" dy="0">Cannot</tspan><tspan x="1146.6666666666667" dy="16">Answer</tspan></text>
<rect x="120.0" y="666" width="20" height="20" rx="4" fill="#0f766e"/>
<text x="150.0" y="680" text-anchor="start" class="legend">Llama 0-shot</text>
<rect x="520.0" y="666" width="20" height="20" rx="4" fill="#14b8a6"/>
<text x="550.0" y="680" text-anchor="start" class="legend">Llama 4-shot</text>
<rect x="920.0" y="666" width="20" height="20" rx="4" fill="#2dd4bf"/>
<text x="950.0" y="680" text-anchor="start" class="legend">Llama SFT</text>
<rect x="120.0" y="700" width="20" height="20" rx="4" fill="#b45309"/>
<text x="150.0" y="714" text-anchor="start" class="legend">Gemma 0-shot</text>
<rect x="520.0" y="700" width="20" height="20" rx="4" fill="#f59e0b"/>
<text x="550.0" y="714" text-anchor="start" class="legend">Gemma 4-shot</text>
<rect x="920.0" y="700" width="20" height="20" rx="4" fill="#fb923c"/>
<text x="950.0" y="714" text-anchor="start" class="legend">Gemma SFT</text>
</svg>